# xmcd
#
# Track frame offsets:
#	150
#	13374
#	27223
#	40934
#	58804
#	75212
#	94665
#	110252
#	134888
#	152228
#	152603
#
# Disc length: 2044 seconds
#
# Revision: 0
# Processed by: cddbd v1.5.1PL0 Copyright (c) Steve Scherf et al.
# Submitted via: dBpowerAMP V4.0
#
DISCID=8707fa0b
DTITLE=Shelley Doty X-Tet - Over The Line
DYEAR=2004
DGENRE=Blues
TTITLE0=Don't Miss This Ride
TTITLE1=Another Happy Lie
TTITLE2=Shy
TTITLE3=Seems Unlikely
TTITLE4=Flowers Don't Dry
TTITLE5=Books
TTITLE6=New Morning
TTITLE7=Over The Line
TTITLE8=Truck Song
TTITLE9=Bonus Track
TTITLE10=Bonus Track
EXTD=
EXTT0=
EXTT1=
EXTT2=
EXTT3=
EXTT4=
EXTT5=
EXTT6=
EXTT7=
EXTT8=
EXTT9=
EXTT10=
PLAYORDER=
